<?xml version="1.0" encoding="UTF-8" ?>
<!DOCTYPE svg PUBLIC "-//W3C//DTD SVG 1.1//EN" "http://www.w3.org/Graphics/SVG/1.1/DTD/svg11.dtd">
<svg width="500pt" height="496pt" viewBox="0 0 500 496" version="1.1" xmlns="http://www.w3.org/2000/svg">
<path fill="#000000" d=" M 32.50 11.31 C 39.16 18.70 42.53 28.33 47.05 37.03 C 52.91 48.62 57.41 60.81 62.23 72.85 C 63.50 76.64 67.11 78.58 70.59 79.96 C 70.74 76.80 70.88 73.64 71.02 70.48 C 87.16 63.79 105.07 69.08 121.86 67.72 C 141.98 65.67 162.24 65.74 182.44 65.57 C 189.43 63.54 191.04 70.57 194.52 74.36 C 200.48 75.65 206.63 73.95 212.62 73.82 C 215.41 69.47 217.10 63.36 222.46 61.64 C 240.93 60.35 259.49 60.28 278.01 60.18 C 282.73 60.28 288.56 60.14 292.10 63.85 C 294.00 66.18 294.77 69.19 296.00 71.89 C 301.93 69.71 299.90 60.80 305.83 58.83 C 322.39 55.80 339.32 57.73 356.03 56.37 C 370.92 55.88 386.11 53.41 400.81 56.98 C 401.29 60.41 401.75 63.83 402.25 67.26 C 406.85 65.65 412.10 64.35 415.10 60.17 C 421.79 51.26 429.80 43.48 437.23 35.21 C 442.00 30.31 446.51 25.06 452.11 21.07 C 454.27 30.65 444.82 34.78 440.05 41.03 C 435.11 47.40 429.23 52.89 423.70 58.71 C 419.68 62.78 418.07 69.27 412.53 71.62 C 408.98 73.30 405.21 74.46 401.59 75.96 C 398.98 72.56 397.27 68.61 396.09 64.51 C 378.39 62.46 360.58 64.05 342.90 65.37 C 330.31 64.47 317.29 63.84 305.08 67.72 C 305.32 71.29 305.55 74.86 305.75 78.44 C 301.39 78.53 297.00 78.68 292.64 78.79 C 290.83 75.14 290.10 69.32 285.17 68.77 C 276.51 67.48 267.70 69.18 258.99 68.39 C 246.54 68.77 234.07 68.73 221.65 69.72 C 220.10 73.96 218.91 78.33 218.12 82.78 C 210.30 82.76 202.43 84.03 194.63 83.25 C 190.03 82.68 188.55 77.64 187.01 74.02 C 158.23 71.57 129.36 77.05 100.54 75.52 C 92.70 75.16 84.44 74.23 77.17 77.83 C 77.35 81.16 77.55 84.49 77.64 87.82 C 73.54 87.65 69.36 88.29 65.29 87.63 C 62.64 86.07 61.84 82.73 60.77 80.12 C 53.49 60.99 45.61 42.05 36.02 23.95 C 33.98 20.01 31.89 15.87 32.50 11.31 Z" />
<path fill="#000000" d=" M 23.92 23.12 C 26.43 24.78 29.01 26.66 30.28 29.49 C 36.00 42.32 40.76 55.57 46.83 68.25 C 50.47 75.60 54.85 82.62 57.70 90.34 C 59.06 94.07 61.01 97.55 63.00 100.98 C 68.67 99.49 74.51 98.99 80.33 98.42 C 89.93 112.21 87.29 130.20 89.36 145.96 C 91.44 158.96 95.44 172.46 104.97 182.04 C 119.12 195.28 140.14 198.20 158.56 194.45 C 164.79 193.44 169.79 189.28 174.92 185.90 C 180.24 182.24 185.48 177.61 187.01 171.03 C 194.27 149.97 189.09 127.30 191.68 105.64 C 191.91 103.69 193.99 103.01 195.61 102.54 C 204.32 100.47 213.37 101.14 222.25 100.86 C 223.93 119.46 220.21 138.19 223.06 156.71 C 224.25 167.14 225.48 178.30 232.01 186.97 C 238.19 196.22 249.88 201.01 260.81 199.53 C 270.01 198.34 280.25 194.17 283.85 184.88 C 287.05 176.46 287.97 167.36 289.57 158.55 C 292.93 140.14 287.48 121.59 288.80 103.13 C 294.55 101.83 300.28 100.40 305.95 98.77 C 307.80 114.59 310.84 130.23 313.06 145.99 C 316.28 160.98 317.49 177.60 328.74 189.26 C 338.84 199.87 355.91 207.18 369.83 199.71 C 377.47 195.08 382.22 187.16 386.81 179.75 C 392.53 170.65 393.57 159.60 394.44 149.15 C 395.51 137.00 397.64 124.26 393.42 112.46 C 392.47 108.96 390.72 103.86 395.20 102.29 C 401.97 100.56 410.20 102.86 416.00 97.97 C 429.34 86.55 434.25 68.26 447.97 57.17 C 446.85 61.51 447.81 66.95 444.45 70.50 C 434.60 81.90 428.94 96.50 417.67 106.73 C 412.88 111.53 405.16 110.17 399.12 111.58 C 399.86 117.48 400.78 123.43 400.32 129.40 C 398.97 144.63 399.09 160.15 394.94 174.98 C 390.28 188.61 382.02 201.73 369.90 209.84 C 362.07 212.97 352.85 213.52 345.01 210.00 C 335.26 206.59 325.67 200.57 320.77 191.18 C 313.78 177.89 311.74 162.83 308.74 148.31 C 306.63 135.11 305.54 121.71 302.17 108.74 C 299.20 109.60 296.26 110.51 293.29 111.34 C 293.87 131.01 296.47 150.96 292.70 170.48 C 290.74 180.27 289.12 190.84 282.99 199.03 C 269.52 211.50 245.36 212.57 232.83 198.17 C 219.36 185.25 220.41 165.11 217.91 147.95 C 216.11 134.97 218.50 121.97 218.51 108.98 C 211.18 110.14 203.82 110.92 196.42 111.37 C 195.42 125.84 195.41 140.34 195.53 154.83 C 194.07 166.46 192.40 179.27 184.52 188.52 C 176.38 195.38 167.14 202.65 155.98 202.98 C 141.43 204.98 125.66 204.07 112.90 196.13 C 98.87 188.67 91.16 173.45 87.64 158.55 C 83.27 141.96 85.52 124.44 80.47 107.99 C 75.24 107.83 69.89 109.04 64.71 108.10 C 59.02 105.21 56.50 98.74 53.62 93.38 C 48.46 79.71 40.30 67.43 35.23 53.72 C 31.46 43.51 25.00 34.17 23.92 23.12 Z" />
<path fill="#000000" d=" M 312.62 73.77 C 337.11 72.02 361.88 74.80 386.11 69.83 C 388.35 76.02 390.63 82.35 390.72 89.02 C 391.53 114.56 392.24 140.68 385.43 165.56 C 382.18 176.77 374.13 186.26 363.93 191.82 C 357.62 194.11 349.93 195.88 343.73 192.30 C 338.43 189.94 333.76 186.03 331.46 180.62 C 327.19 170.90 323.81 160.73 321.73 150.32 C 317.47 124.98 309.87 99.76 312.62 73.77 Z" />
<path fill="#000000" d=" M 235.99 78.17 C 251.19 77.30 266.70 77.49 281.42 73.08 C 281.45 88.81 284.66 104.27 284.97 119.99 C 285.42 133.26 287.36 146.85 283.69 159.84 C 280.59 171.99 277.27 185.71 266.29 193.33 C 257.47 197.57 244.85 196.71 238.57 188.44 C 230.50 177.41 228.11 163.33 227.17 150.02 C 225.84 129.05 225.78 108.02 225.68 87.03 C 226.99 82.50 230.05 76.58 235.99 78.17 Z" />
<path fill="#000000" d=" M 93.61 81.28 C 123.04 86.11 152.65 80.93 181.97 77.96 C 183.38 106.67 184.86 136.58 175.16 164.13 C 171.87 171.55 167.19 178.62 160.80 183.68 C 146.17 191.93 127.65 189.16 113.28 181.70 C 107.42 177.15 103.00 170.73 99.92 164.03 C 95.38 149.82 94.73 134.75 93.81 119.98 C 93.55 116.47 90.43 114.36 88.60 111.66 C 89.38 108.32 92.12 105.38 91.42 101.76 C 90.68 94.86 91.33 87.86 93.61 81.28 Z" />
<path fill="#000000" d=" M 211.09 209.89 C 213.70 211.85 217.33 213.71 216.19 217.95 C 217.42 234.82 215.63 251.78 215.19 268.66 C 210.91 270.17 205.97 271.23 202.98 274.97 C 199.40 280.07 199.48 287.53 203.72 292.22 C 208.43 298.89 217.40 299.39 224.74 300.30 C 227.68 295.00 229.87 287.58 237.29 287.24 C 237.07 292.17 236.26 297.96 240.27 301.69 C 243.74 306.57 250.28 306.70 255.73 306.57 C 256.53 301.50 257.05 296.36 258.59 291.44 C 260.39 289.13 263.56 288.74 266.10 287.65 C 267.30 292.80 267.10 299.60 272.22 302.80 C 275.81 305.31 281.76 307.96 285.44 304.48 C 290.48 298.64 290.99 290.31 291.04 282.99 C 291.89 278.35 289.77 272.66 284.89 271.37 C 275.94 268.76 264.49 265.85 260.71 256.18 C 256.96 244.22 257.17 231.46 256.87 219.06 C 259.86 218.05 262.87 217.05 265.86 215.99 C 265.96 224.59 265.94 233.19 266.38 241.79 C 266.79 246.51 267.19 251.77 270.49 255.50 C 274.57 260.62 281.86 260.01 287.43 262.48 C 292.74 264.08 296.82 268.60 298.05 273.98 C 300.73 286.53 297.78 300.05 290.49 310.54 C 287.80 313.97 283.06 314.90 278.97 315.00 C 272.81 316.46 267.83 312.35 262.80 309.63 C 259.80 313.05 256.20 317.03 251.01 315.98 C 243.83 316.53 237.71 312.74 232.40 308.48 C 228.64 305.14 223.28 308.60 218.97 308.13 C 210.04 309.08 201.15 304.16 195.94 297.06 C 189.98 290.15 191.09 279.25 196.28 272.19 C 198.97 267.38 204.03 264.88 208.70 262.42 C 208.32 244.85 210.10 227.40 211.09 209.89 Z" />
<path fill="#000000" d=" M 351.15 278.15 C 365.92 263.72 383.37 248.79 405.04 248.17 C 418.11 246.70 428.70 256.21 438.12 263.91 C 445.91 269.76 450.41 279.59 459.73 283.43 C 464.64 285.77 470.24 286.20 475.59 285.62 C 481.23 283.53 483.05 276.99 487.73 273.65 C 490.78 273.12 493.83 273.79 496.77 274.50 C 494.86 277.89 492.62 281.06 490.62 284.39 C 492.53 285.08 494.44 285.77 496.35 286.48 C 493.42 289.51 490.32 292.37 487.54 295.54 C 489.21 296.48 492.55 298.37 494.22 299.31 C 492.76 300.96 491.28 302.59 489.84 304.25 C 492.16 305.15 494.46 306.11 496.74 307.12 C 495.08 312.85 491.63 318.55 485.96 321.00 C 475.94 325.50 463.68 326.68 453.79 321.31 C 440.40 314.57 430.81 302.88 421.44 291.57 C 413.46 284.02 406.30 273.67 394.40 272.58 C 385.44 270.52 376.76 275.12 368.99 278.98 C 354.99 287.54 343.55 299.51 331.89 310.91 C 326.99 316.34 319.19 317.49 312.33 318.43 C 308.47 318.12 302.80 319.61 300.19 315.77 C 293.89 308.49 298.82 295.93 307.95 293.97 C 311.37 292.69 315.21 292.61 318.79 293.16 C 320.62 295.56 320.95 298.65 321.95 301.46 C 334.65 297.90 341.54 286.15 351.15 278.15 Z" />
<path fill="#000000" d=" M 1.94 261.74 C 7.16 260.90 10.53 265.09 14.46 267.49 C 24.64 275.64 37.42 279.62 50.02 282.10 C 61.04 283.75 70.78 277.27 80.72 273.85 C 94.71 270.97 109.10 274.37 121.87 280.15 C 131.10 285.46 139.77 291.71 149.01 296.99 C 155.50 300.48 162.65 302.37 169.77 304.04 C 171.49 300.80 173.18 297.53 175.10 294.40 C 183.73 293.12 192.70 299.33 191.18 308.89 C 187.53 315.52 179.42 316.27 172.74 317.44 C 146.25 317.00 125.67 297.74 100.51 292.33 C 86.34 288.67 70.18 287.43 57.02 294.94 C 44.89 300.71 36.60 313.14 23.02 316.02 C 17.24 317.43 10.41 319.80 5.03 315.98 C 1.26 314.07 1.24 309.59 1.37 305.97 C 4.92 305.70 8.47 305.49 12.00 305.05 C 10.49 301.01 7.19 298.13 5.03 294.50 C 6.82 292.34 10.15 291.22 10.83 288.30 C 7.63 284.57 2.48 282.65 0.98 277.50 C 3.68 276.83 6.40 276.23 9.12 275.65 C 6.25 271.46 -0.96 267.59 1.94 261.74 Z" />
<path fill="#000000" d=" M 204.99 282.09 C 206.88 277.91 211.95 276.65 215.81 275.14 C 216.87 279.72 221.62 286.10 216.86 289.84 C 211.61 294.19 203.19 288.69 204.99 282.09 Z" />
<path fill="#000000" d=" M 274.38 280.34 C 281.19 277.76 282.51 285.84 284.30 290.18 C 281.44 291.71 278.33 294.95 274.86 293.25 C 269.88 291.34 268.99 282.01 274.38 280.34 Z" />
<path fill="#000000" d=" M 239.02 294.83 C 238.51 290.38 243.99 288.42 247.01 286.89 C 247.52 291.15 251.03 296.83 246.76 300.02 C 243.49 299.81 240.72 297.48 239.02 294.83 Z" />
<path fill="#000000" d=" M 146.99 325.11 C 173.16 325.21 199.23 322.01 225.41 322.52 C 250.27 323.21 275.09 325.91 299.99 325.29 C 330.65 325.01 361.31 325.23 391.96 324.43 C 408.00 324.87 424.54 325.13 439.93 330.16 C 446.84 331.37 449.08 339.47 448.54 345.44 C 447.45 346.76 446.11 347.86 444.83 349.00 C 445.18 352.11 446.04 355.46 444.56 358.42 C 441.16 366.07 435.99 372.79 432.51 380.41 C 428.35 389.85 424.27 399.60 417.49 407.51 C 412.91 412.06 405.87 407.13 402.38 403.72 C 395.64 392.83 388.90 381.91 382.69 370.71 C 371.04 382.40 362.58 396.78 352.92 410.06 C 348.00 407.95 341.63 407.36 338.78 402.21 C 331.65 390.14 324.71 377.95 317.56 365.88 C 308.13 380.71 300.57 396.57 292.59 412.19 C 286.93 409.23 280.44 406.75 277.00 401.00 C 268.78 389.24 261.62 376.79 253.35 365.06 C 241.55 381.33 229.19 397.32 219.75 415.13 C 214.33 412.11 207.55 410.52 203.97 405.03 C 195.39 394.04 187.44 382.52 181.53 369.85 C 177.14 378.25 173.22 386.89 169.64 395.67 C 166.41 402.93 162.56 409.91 159.74 417.36 C 153.71 414.88 145.66 413.78 142.76 407.10 C 137.82 395.12 133.17 382.95 126.76 371.64 C 120.61 383.20 114.81 394.93 108.70 406.51 C 103.25 406.13 97.72 406.29 92.45 404.63 C 85.10 389.00 82.85 371.42 74.53 356.20 C 72.75 353.13 73.76 349.22 71.78 346.26 C 69.30 343.60 66.21 341.60 63.43 339.28 C 65.33 332.46 70.23 325.18 78.28 325.60 C 101.18 325.84 124.09 325.27 146.99 325.11 Z" />
<path fill="#ffffff" d=" M 144.89 330.31 C 176.29 330.51 207.64 325.32 239.03 328.20 C 284.35 331.53 329.83 329.60 375.21 329.45 C 394.47 328.62 414.00 329.11 432.89 333.29 C 437.38 334.11 439.04 338.97 441.47 342.21 C 438.71 342.62 435.23 341.86 433.08 344.05 C 426.86 352.20 424.09 362.21 419.06 371.03 C 414.69 378.96 410.87 387.17 406.50 395.10 C 396.95 379.63 386.57 364.36 380.34 347.16 C 377.53 348.29 373.63 348.95 372.42 352.22 C 364.90 368.14 355.06 382.77 345.36 397.41 C 335.35 380.72 325.97 363.65 316.10 346.87 C 314.33 343.34 308.74 343.58 306.92 346.89 C 304.14 351.34 302.19 356.25 300.10 361.05 C 295.37 372.98 287.71 383.46 283.02 395.42 C 275.53 386.13 270.11 375.47 263.48 365.60 C 258.79 358.21 253.40 351.24 249.64 343.30 C 242.32 345.02 239.69 352.53 236.22 358.26 C 227.06 371.77 219.64 386.40 209.81 399.48 C 194.97 382.99 188.55 361.18 175.27 343.64 C 173.58 340.85 169.22 342.22 168.16 344.87 C 162.70 363.25 157.57 381.86 149.36 399.25 C 145.22 393.94 143.67 387.15 140.71 381.20 C 134.56 368.58 130.42 355.13 125.93 341.87 C 124.95 338.23 119.32 340.21 118.12 342.88 C 112.58 359.66 105.63 376.06 96.68 391.34 C 92.14 376.68 87.14 362.17 82.68 347.49 C 82.41 341.36 76.62 339.23 72.15 336.77 C 72.05 335.32 71.95 333.87 71.85 332.42 C 96.12 330.11 120.57 331.74 144.89 330.31 Z" />
<path fill="#000000" d=" M 241.99 408.21 C 247.31 405.84 252.81 402.95 258.80 403.04 C 270.60 417.24 278.02 434.37 287.26 450.23 C 296.84 439.24 305.19 426.80 309.11 412.62 C 312.47 407.70 319.90 407.93 325.04 406.75 C 332.92 420.98 343.78 433.35 353.73 446.16 C 359.68 438.14 364.71 429.51 370.04 421.09 C 373.94 414.57 381.27 411.47 387.84 408.35 C 398.10 421.62 409.38 434.18 417.75 448.82 C 426.96 440.17 432.37 428.47 439.00 417.92 C 442.40 413.75 447.71 411.81 452.46 409.56 C 460.26 422.73 469.19 435.26 475.89 449.06 C 478.36 453.82 477.75 459.62 480.81 464.11 C 483.42 468.65 486.49 474.42 483.42 479.45 C 478.65 483.69 472.51 486.84 465.99 486.77 C 434.03 489.24 402.01 485.19 370.03 486.82 C 345.34 486.66 320.69 488.37 296.00 488.01 C 266.65 487.61 237.33 489.07 208.01 489.92 C 174.44 490.33 140.87 489.52 107.31 490.36 C 96.57 489.86 85.24 490.86 74.99 486.97 C 64.56 483.49 63.35 467.93 71.53 461.53 C 77.35 457.22 85.13 458.51 91.95 457.72 C 96.69 451.24 101.51 444.81 106.67 438.66 C 111.84 432.45 115.25 425.06 119.08 418.02 C 121.55 411.99 127.66 408.03 133.90 406.99 C 145.30 417.30 149.99 432.55 157.90 445.40 C 163.52 434.73 167.81 423.34 174.11 413.03 C 177.44 406.44 185.29 405.36 191.66 403.74 C 200.87 417.89 208.97 432.70 217.48 447.27 C 222.68 439.76 228.20 432.40 232.28 424.19 C 235.38 418.81 238.04 413.01 241.99 408.21 Z" />
<path fill="#ffffff" d=" M 234.96 435.96 C 239.05 430.02 241.69 423.25 245.81 417.34 C 254.47 432.88 262.34 448.93 272.53 463.57 C 274.78 467.29 281.06 470.62 284.62 466.72 C 295.72 453.00 307.50 439.47 314.44 423.02 C 325.25 436.41 333.10 451.87 343.44 465.60 C 345.14 467.38 347.82 467.52 349.89 468.67 C 352.65 461.94 357.21 456.24 361.15 450.21 C 367.16 441.47 372.46 432.26 378.65 423.65 C 386.12 433.85 393.16 444.36 399.78 455.13 C 403.01 460.57 407.51 465.20 412.68 468.84 C 424.07 456.12 434.59 442.59 443.37 427.92 C 448.50 435.95 453.50 444.11 457.19 452.93 C 459.13 457.12 460.57 461.74 464.06 464.99 C 468.21 468.80 474.22 467.42 479.28 468.56 C 477.14 473.57 472.98 477.69 467.47 478.68 C 456.80 480.48 445.88 480.42 435.09 480.65 C 408.44 479.63 381.75 479.79 355.09 480.29 C 324.77 482.03 294.40 483.32 264.03 482.31 C 245.68 483.42 227.20 482.02 208.95 484.54 C 172.98 485.63 136.98 484.62 101.00 485.11 C 92.87 484.56 83.47 486.60 76.30 481.64 C 73.82 476.59 74.17 468.73 79.46 465.48 C 85.30 462.58 91.88 463.31 98.04 464.35 C 102.55 454.93 109.58 447.12 115.87 438.89 C 119.76 433.86 122.68 428.19 126.02 422.80 C 131.75 435.91 136.55 449.58 144.29 461.70 C 146.69 465.98 150.80 468.58 155.08 470.73 C 158.67 460.36 164.70 451.15 169.10 441.14 C 172.25 433.78 175.86 426.63 179.68 419.59 C 186.63 431.20 191.97 443.65 198.23 455.62 C 200.51 459.71 201.41 464.91 205.29 467.88 C 209.13 469.80 211.34 466.63 213.34 464.32 C 220.69 454.99 228.76 446.14 234.96 435.96 Z" />
</svg>
